<svg width="24" height="26" viewBox="0 0 24 26" fill="none" xmlns="http://www.w3.org/2000/svg">
<g filter="url(#filter0_d_17_785)">
<path d="M8.25 9C5.25 9 5.25 10.3425 5.25 12V12.75C5.25 14.82 5.25 16.5 9 16.5H15C18 16.5 18.75 14.82 18.75 12.75V12C18.75 10.3425 18.75 9 15.75 9C15 9 14.79 9.1575 14.4 9.45L13.635 10.26C12.75 11.205 11.25 11.205 10.3575 10.26L9.6 9.45C9.21 9.1575 9 9 8.25 9Z" stroke="#33B039" stroke-width="1.5" stroke-miterlimit="10" stroke-linecap="round" stroke-linejoin="round"/>
<path d="M17.25 9V4.5C17.25 2.8425 17.25 1.5 14.25 1.5H9.75C6.75 1.5 6.75 2.8425 6.75 4.5V9" stroke="#33B039" stroke-width="1.5" stroke-miterlimit="10" stroke-linecap="round" stroke-linejoin="round"/>
<path d="M10.9125 6.92249H13.41" stroke="#33B039" stroke-width="1.5" stroke-linecap="round" stroke-linejoin="round"/>
<path d="M10.29 4.67249H14.04" stroke="#33B039" stroke-width="1.5" stroke-linecap="round" stroke-linejoin="round"/>
</g>
<defs>
<filter id="filter0_d_17_785" x="-1" y="0" width="26" height="26" filterUnits="userSpaceOnUse" color-interpolation-filters="sRGB">
<feFlood flood-opacity="0" result="BackgroundImageFix"/>
<feColorMatrix in="SourceAlpha" type="matrix" values="0 0 0 0 0 0 0 0 0 0 0 0 0 0 0 0 0 0 127 0" result="hardAlpha"/>
<feOffset dy="4"/>
<feGaussianBlur stdDeviation="2"/>
<feComposite in2="hardAlpha" operator="out"/>
<feColorMatrix type="matrix" values="0 0 0 0 0 0 0 0 0 0 0 0 0 0 0 0 0 0 0.25 0"/>
<feBlend mode="normal" in2="BackgroundImageFix" result="effect1_dropShadow_17_785"/>
<feBlend mode="normal" in="SourceGraphic" in2="effect1_dropShadow_17_785" result="shape"/>
</filter>
</defs>
</svg>
